<svg width="674" height="773" viewBox="0 0 674 773" fill="none" xmlns="http://www.w3.org/2000/svg">
<g id="map">
<rect width="674" height="773" fill="white"/>
<g id="bg" clip-path="url(#clip0_508_2186)">
<g id="bg_2">
<path id="Vector 83" d="M97.9999 261.5L95.4999 313C94.9999 337.333 95.6999 395.7 102.5 434.5C109.3 473.3 145.333 487.667 162.5 490L285.5 501L305 484.5C281 402.1 288 271.167 294.5 216C295.333 204.667 299.576 180.739 302 172.5C304.5 164 303.667 140.667 302 129.5L284.5 120C247.167 128.167 165.7 147.6 138.5 160C111.3 172.4 102.833 201.833 102 215L97.9999 261.5Z" stroke="black"/>
<path id="Vector 84" d="M344 104.5L333.5 121.5C339.5 128.499 337.252 168.238 336.5 173.5C336 177 320.5 257.5 321.5 266.5C322.117 272.056 319 325.393 319 336C319 345 321.5 383.5 323.5 402L332 454L339 489L357 504C393.8 504.4 462.333 486.5 492 477.5L501.5 459C494 430 494.5 350.5 493.5 330.5C492.5 310.5 500 253.5 501 238.5C501.8 226.5 508.333 195.833 511.5 182L519 152C531.8 81.1996 475.667 72.8329 446 77.4996L344 104.5Z" stroke="black"/>
<path id="Vector 85" d="M608 773C565.2 709.8 526.5 576.333 512.5 517.5L495 512C461.5 523 412.5 530 382.5 535C352.5 540 317 537 314 537C311 537 266.5 532 215 528.5C173.8 525.7 148.833 521.666 141.5 520C86.7 506.4 69.3333 452 67.5 426.5C66 399.666 63 345.7 63 344.5C63 343.3 63 301.333 63 280.5L67.5 215.5C70.7 160.3 117.5 131.166 140.5 123.5L214.5 104L305 79.9998L436 45.4998C486.667 38.9998 579.4 57.3998 545 183C535.667 229.5 524.5 327.5 527 354.5C530.5 448 559.2 662.6 646 773" stroke="black"/>
</g>
</g>
<g id="lines">
<g id="lines_2">
<path id="Vector 86" d="M213 137C213 137 168.5 306.5 208.5 494" stroke="black"/>
<path id="Vector 87" d="M203.5 182.5L297.5 193" stroke="black"/>
<path id="Vector 88" d="M198 223L292.5 233.5" stroke="black"/>
<path id="Vector 89" d="M194 269L290 275" stroke="black"/>
<path id="Vector 90" d="M192 318L288.5 316" stroke="black"/>
<path id="Vector 91" d="M192.5 364.5L288.5 357" stroke="black"/>
<path id="Vector 92" d="M195.5 409L290.5 398.5" stroke="black"/>
<path id="Vector 93" d="M200.5 450L295.5 439" stroke="black"/>
<path id="Vector 94" d="M104.5 201.5L198.5 219.5" stroke="black"/>
<path id="Vector 95" d="M99 251.5L195 253" stroke="black"/>
<path id="Vector 96" d="M96.5 294.5H192.5" stroke="black"/>
<path id="Vector 97" d="M95.5 341.5L192 340.5" stroke="black"/>
<path id="Vector 98" d="M97.5 389L193.5 382" stroke="black"/>
<path id="Vector 99" d="M101.5 430L197 422" stroke="black"/>
</g>
</g>
<g id="BLOCK_A">
<g id="id397">
<g id="Group 450">
<path id="Vector 100" d="M248.5 172.5L250.5 155L261.5 156L262 153L277 155L276.5 158.5L283 159L280.5 177.5L248.5 172.5Z" stroke="black"/>
<path id="Vector 101" d="M249.5 164L281.5 168.5" stroke="black"/>
<path id="Vector 102" d="M277 168L276 176.5" stroke="black"/>
</g>
<path id="397" d="M223.835 166.156C223.246 166.156 222.708 166.052 222.223 165.844C221.746 165.627 221.365 165.302 221.079 164.869C220.793 164.436 220.641 163.894 220.624 163.244H221.989C222.006 163.729 222.171 164.141 222.483 164.479C222.804 164.808 223.254 164.973 223.835 164.973C224.39 164.973 224.814 164.821 225.109 164.518C225.404 164.206 225.551 163.82 225.551 163.361C225.551 162.806 225.352 162.395 224.953 162.126C224.563 161.857 224.082 161.723 223.51 161.723H222.834V160.579H223.523C224.034 160.579 224.446 160.458 224.758 160.215C225.079 159.972 225.239 159.63 225.239 159.188C225.239 158.815 225.113 158.512 224.862 158.278C224.619 158.044 224.273 157.927 223.822 157.927C223.354 157.927 222.986 158.066 222.717 158.343C222.448 158.612 222.301 158.95 222.275 159.357H220.91C220.927 158.828 221.057 158.369 221.3 157.979C221.551 157.589 221.894 157.286 222.327 157.069C222.76 156.852 223.259 156.744 223.822 156.744C224.429 156.744 224.936 156.852 225.343 157.069C225.759 157.277 226.071 157.563 226.279 157.927C226.496 158.282 226.604 158.672 226.604 159.097C226.604 159.582 226.47 160.007 226.201 160.371C225.932 160.735 225.573 160.978 225.122 161.099C225.642 161.212 226.071 161.467 226.409 161.866C226.747 162.256 226.916 162.763 226.916 163.387C226.916 163.89 226.799 164.353 226.565 164.778C226.331 165.194 225.984 165.528 225.525 165.779C225.066 166.03 224.502 166.156 223.835 166.156ZM231.329 166.156C230.731 166.156 230.219 166.039 229.795 165.805C229.37 165.571 229.036 165.259 228.794 164.869C228.56 164.479 228.417 164.054 228.365 163.595H229.652C229.73 164.046 229.916 164.392 230.211 164.635C230.505 164.878 230.882 164.999 231.342 164.999C231.974 164.999 232.494 164.704 232.902 164.115C233.318 163.517 233.539 162.603 233.565 161.372C233.357 161.753 233.032 162.078 232.59 162.347C232.156 162.616 231.654 162.75 231.082 162.75C230.57 162.75 230.089 162.629 229.639 162.386C229.188 162.143 228.824 161.805 228.547 161.372C228.269 160.93 228.131 160.41 228.131 159.812C228.131 159.283 228.261 158.785 228.521 158.317C228.781 157.849 229.145 157.472 229.613 157.186C230.089 156.891 230.653 156.744 231.303 156.744C231.97 156.744 232.533 156.87 232.993 157.121C233.452 157.372 233.82 157.706 234.098 158.122C234.375 158.538 234.574 159.006 234.696 159.526C234.826 160.046 234.891 160.579 234.891 161.125C234.891 162.13 234.748 163.01 234.462 163.764C234.184 164.518 233.781 165.107 233.253 165.532C232.724 165.948 232.083 166.156 231.329 166.156ZM231.394 161.567C231.758 161.567 232.083 161.485 232.369 161.32C232.655 161.155 232.88 160.939 233.045 160.67C233.218 160.393 233.305 160.089 233.305 159.76C233.305 159.405 233.218 159.093 233.045 158.824C232.88 158.547 232.65 158.33 232.356 158.174C232.07 158.018 231.745 157.94 231.381 157.94C231.017 157.94 230.692 158.018 230.406 158.174C230.12 158.33 229.89 158.547 229.717 158.824C229.552 159.093 229.47 159.4 229.47 159.747C229.47 160.302 229.652 160.744 230.016 161.073C230.38 161.402 230.839 161.567 231.394 161.567ZM236.883 166L240.406 158.083H235.674V156.9H241.823V157.901L238.326 166H236.883Z" fill="black"/>
</g>
<g id="id396">
<g id="Group 450_2">
<path id="Vector 100_2" d="M242.401 217.929L243 199.5L254.465 200L254.465 197.5L269.57 198.426L269.57 201.5L275.842 201.984L274.678 220.616L242.401 217.929Z" stroke="black"/>
<path id="Vector 101_2" d="M242.788 209.379L275.029 211.567" stroke="black"/>
<path id="Vector 102_2" d="M270.504 211.391L270.118 219.941" stroke="black"/>
</g>
<path id="396" d="M211.835 207.156C211.246 207.156 210.708 207.052 210.223 206.844C209.746 206.627 209.365 206.302 209.079 205.869C208.793 205.436 208.641 204.894 208.624 204.244H209.989C210.006 204.729 210.171 205.141 210.483 205.479C210.804 205.808 211.254 205.973 211.835 205.973C212.39 205.973 212.814 205.821 213.109 205.518C213.404 205.206 213.551 204.82 213.551 204.361C213.551 203.806 213.352 203.395 212.953 203.126C212.563 202.857 212.082 202.723 211.51 202.723H210.834V201.579H211.523C212.034 201.579 212.446 201.458 212.758 201.215C213.079 200.972 213.239 200.63 213.239 200.188C213.239 199.815 213.113 199.512 212.862 199.278C212.619 199.044 212.273 198.927 211.822 198.927C211.354 198.927 210.986 199.066 210.717 199.343C210.448 199.612 210.301 199.95 210.275 200.357H208.91C208.927 199.828 209.057 199.369 209.3 198.979C209.551 198.589 209.894 198.286 210.327 198.069C210.76 197.852 211.259 197.744 211.822 197.744C212.429 197.744 212.936 197.852 213.343 198.069C213.759 198.277 214.071 198.563 214.279 198.927C214.496 199.282 214.604 199.672 214.604 200.097C214.604 200.582 214.47 201.007 214.201 201.371C213.932 201.735 213.573 201.978 213.122 202.099C213.642 202.212 214.071 202.467 214.409 202.866C214.747 203.256 214.916 203.763 214.916 204.387C214.916 204.89 214.799 205.353 214.565 205.778C214.331 206.194 213.984 206.528 213.525 206.779C213.066 207.03 212.502 207.156 211.835 207.156ZM219.329 207.156C218.731 207.156 218.219 207.039 217.795 206.805C217.37 206.571 217.036 206.259 216.794 205.869C216.56 205.479 216.417 205.054 216.365 204.595H217.652C217.73 205.046 217.916 205.392 218.211 205.635C218.505 205.878 218.882 205.999 219.342 205.999C219.974 205.999 220.494 205.704 220.902 205.115C221.318 204.517 221.539 203.603 221.565 202.372C221.357 202.753 221.032 203.078 220.59 203.347C220.156 203.616 219.654 203.75 219.082 203.75C218.57 203.75 218.089 203.629 217.639 203.386C217.188 203.143 216.824 202.805 216.547 202.372C216.269 201.93 216.131 201.41 216.131 200.812C216.131 200.283 216.261 199.785 216.521 199.317C216.781 198.849 217.145 198.472 217.613 198.186C218.089 197.891 218.653 197.744 219.303 197.744C219.97 197.744 220.533 197.87 220.993 198.121C221.452 198.372 221.82 198.706 222.098 199.122C222.375 199.538 222.574 200.006 222.696 200.526C222.826 201.046 222.891 201.579 222.891 202.125C222.891 203.13 222.748 204.01 222.462 204.764C222.184 205.518 221.781 206.107 221.253 206.532C220.724 206.948 220.083 207.156 219.329 207.156ZM219.394 202.567C219.758 202.567 220.083 202.485 220.369 202.32C220.655 202.155 220.88 201.939 221.045 201.67C221.218 201.393 221.305 201.089 221.305 200.76C221.305 200.405 221.218 200.093 221.045 199.824C220.88 199.547 220.65 199.33 220.356 199.174C220.07 199.018 219.745 198.94 219.381 198.94C219.017 198.94 218.692 199.018 218.406 199.174C218.12 199.33 217.89 199.547 217.717 199.824C217.552 200.093 217.47 200.4 217.47 200.747C217.47 201.302 217.652 201.744 218.016 202.073C218.38 202.402 218.839 202.567 219.394 202.567ZM227.828 207.156C227.161 207.156 226.598 207.03 226.138 206.779C225.679 206.528 225.306 206.194 225.02 205.778C224.743 205.362 224.544 204.894 224.422 204.374C224.301 203.854 224.24 203.321 224.24 202.775C224.24 201.77 224.379 200.89 224.656 200.136C224.942 199.382 225.35 198.797 225.878 198.381C226.407 197.956 227.048 197.744 227.802 197.744C228.4 197.744 228.912 197.861 229.336 198.095C229.761 198.329 230.09 198.641 230.324 199.031C230.567 199.421 230.714 199.846 230.766 200.305H229.479C229.401 199.854 229.215 199.508 228.92 199.265C228.626 199.022 228.249 198.901 227.789 198.901C227.157 198.901 226.632 199.2 226.216 199.798C225.809 200.387 225.592 201.297 225.566 202.528C225.774 202.147 226.095 201.822 226.528 201.553C226.97 201.284 227.477 201.15 228.049 201.15C228.561 201.15 229.037 201.271 229.479 201.514C229.93 201.757 230.294 202.099 230.571 202.541C230.857 202.974 231 203.49 231 204.088C231 204.617 230.87 205.115 230.61 205.583C230.35 206.051 229.982 206.432 229.505 206.727C229.037 207.013 228.478 207.156 227.828 207.156ZM227.75 205.96C228.114 205.96 228.439 205.882 228.725 205.726C229.011 205.57 229.237 205.358 229.401 205.089C229.566 204.812 229.648 204.5 229.648 204.153C229.648 203.598 229.466 203.156 229.102 202.827C228.747 202.498 228.292 202.333 227.737 202.333C227.373 202.333 227.044 202.415 226.749 202.58C226.463 202.745 226.238 202.966 226.073 203.243C225.909 203.512 225.826 203.811 225.826 204.14C225.826 204.495 225.909 204.812 226.073 205.089C226.247 205.358 226.476 205.57 226.762 205.726C227.057 205.882 227.386 205.96 227.75 205.96Z" fill="black"/>
</g>
<g id="id384" clip-path="url(#clip1_508_2186)">
<g id="Group 450_3">
<path id="Vector 100_3" d="M152.771 222.987L152.172 241.416L140.707 240.916L140.707 243.416L125.602 242.49L125.602 239.416L119.33 238.932L120.494 220.3L152.771 222.987Z" stroke="black"/>
<path id="Vector 101_3" d="M152.384 231.537L120.143 229.349" stroke="black"/>
<path id="Vector 102_3" d="M124.668 229.525L125.054 220.975" stroke="black"/>
</g>
<path id="384" d="M167.835 234.156C167.246 234.156 166.708 234.052 166.223 233.844C165.746 233.627 165.365 233.302 165.079 232.869C164.793 232.436 164.641 231.894 164.624 231.244H165.989C166.006 231.729 166.171 232.141 166.483 232.479C166.804 232.808 167.254 232.973 167.835 232.973C168.39 232.973 168.814 232.821 169.109 232.518C169.404 232.206 169.551 231.82 169.551 231.361C169.551 230.806 169.352 230.395 168.953 230.126C168.563 229.857 168.082 229.723 167.51 229.723H166.834V228.579H167.523C168.034 228.579 168.446 228.458 168.758 228.215C169.079 227.972 169.239 227.63 169.239 227.188C169.239 226.815 169.113 226.512 168.862 226.278C168.619 226.044 168.273 225.927 167.822 225.927C167.354 225.927 166.986 226.066 166.717 226.343C166.448 226.612 166.301 226.95 166.275 227.357H164.91C164.927 226.828 165.057 226.369 165.3 225.979C165.551 225.589 165.894 225.286 166.327 225.069C166.76 224.852 167.259 224.744 167.822 224.744C168.429 224.744 168.936 224.852 169.343 225.069C169.759 225.277 170.071 225.563 170.279 225.927C170.496 226.282 170.604 226.672 170.604 227.097C170.604 227.582 170.47 228.007 170.201 228.371C169.932 228.735 169.573 228.978 169.122 229.099C169.642 229.212 170.071 229.467 170.409 229.866C170.747 230.256 170.916 230.763 170.916 231.387C170.916 231.89 170.799 232.353 170.565 232.778C170.331 233.194 169.984 233.528 169.525 233.779C169.066 234.03 168.502 234.156 167.835 234.156ZM175.723 234.156C175.117 234.156 174.566 234.048 174.072 233.831C173.587 233.606 173.197 233.294 172.902 232.895C172.616 232.496 172.473 232.028 172.473 231.491C172.473 230.945 172.625 230.455 172.928 230.022C173.24 229.589 173.652 229.294 174.163 229.138C173.704 228.956 173.349 228.692 173.097 228.345C172.846 227.99 172.72 227.6 172.72 227.175C172.72 226.733 172.837 226.33 173.071 225.966C173.305 225.593 173.643 225.299 174.085 225.082C174.536 224.857 175.082 224.744 175.723 224.744C176.365 224.744 176.906 224.857 177.348 225.082C177.799 225.299 178.141 225.593 178.375 225.966C178.609 226.33 178.726 226.733 178.726 227.175C178.726 227.591 178.596 227.981 178.336 228.345C178.085 228.7 177.73 228.965 177.27 229.138C177.782 229.303 178.189 229.602 178.492 230.035C178.804 230.46 178.96 230.945 178.96 231.491C178.96 232.028 178.817 232.496 178.531 232.895C178.245 233.294 177.855 233.606 177.361 233.831C176.876 234.048 176.33 234.156 175.723 234.156ZM175.723 228.696C176.226 228.696 176.62 228.566 176.906 228.306C177.201 228.046 177.348 227.712 177.348 227.305C177.348 226.846 177.205 226.495 176.919 226.252C176.633 226.009 176.235 225.888 175.723 225.888C175.212 225.888 174.813 226.009 174.527 226.252C174.241 226.495 174.098 226.846 174.098 227.305C174.098 227.712 174.241 228.046 174.527 228.306C174.813 228.566 175.212 228.696 175.723 228.696ZM175.723 232.986C176.347 232.986 176.815 232.839 177.127 232.544C177.439 232.241 177.595 231.855 177.595 231.387C177.595 230.867 177.426 230.468 177.088 230.191C176.759 229.905 176.304 229.762 175.723 229.762C175.143 229.762 174.683 229.905 174.345 230.191C174.007 230.468 173.838 230.867 173.838 231.387C173.838 231.855 173.994 232.241 174.306 232.544C174.627 232.839 175.099 232.986 175.723 232.986ZM184.825 234V232.18H180.262V231.088L184.604 224.9H186.19V230.984H187.464V232.18H186.19V234H184.825ZM181.757 230.984H184.903V226.421L181.757 230.984Z" fill="black"/>
</g>
<g id="id385" clip-path="url(#clip2_508_2186)">
<g id="Group 450_4">
<path id="Vector 100_4" d="M149.26 263.048L149.714 281.481L138.239 281.636L138.382 284.132L123.249 284.07L123.074 281.001L116.784 280.875L116.883 262.207L149.26 263.048Z" stroke="black"/>
<path id="Vector 101_4" d="M149.362 271.605L117.049 271.261" stroke="black"/>
<path id="Vector 102_4" d="M121.576 271.179L121.474 262.621" stroke="black"/>
</g>
<path id="385" d="M165.835 276.156C165.246 276.156 164.708 276.052 164.223 275.844C163.746 275.627 163.365 275.302 163.079 274.869C162.793 274.436 162.641 273.894 162.624 273.244H163.989C164.006 273.729 164.171 274.141 164.483 274.479C164.804 274.808 165.254 274.973 165.835 274.973C166.39 274.973 166.814 274.821 167.109 274.518C167.404 274.206 167.551 273.82 167.551 273.361C167.551 272.806 167.352 272.395 166.953 272.126C166.563 271.857 166.082 271.723 165.51 271.723H164.834V270.579H165.523C166.034 270.579 166.446 270.458 166.758 270.215C167.079 269.972 167.239 269.63 167.239 269.188C167.239 268.815 167.113 268.512 166.862 268.278C166.619 268.044 166.273 267.927 165.822 267.927C165.354 267.927 164.986 268.066 164.717 268.343C164.448 268.612 164.301 268.95 164.275 269.357H162.91C162.927 268.828 163.057 268.369 163.3 267.979C163.551 267.589 163.894 267.286 164.327 267.069C164.76 266.852 165.259 266.744 165.822 266.744C166.429 266.744 166.936 266.852 167.343 267.069C167.759 267.277 168.071 267.563 168.279 267.927C168.496 268.282 168.604 268.672 168.604 269.097C168.604 269.582 168.47 270.007 168.201 270.371C167.932 270.735 167.573 270.978 167.122 271.099C167.642 271.212 168.071 271.467 168.409 271.866C168.747 272.256 168.916 272.763 168.916 273.387C168.916 273.89 168.799 274.353 168.565 274.778C168.331 275.194 167.984 275.528 167.525 275.779C167.066 276.03 166.502 276.156 165.835 276.156ZM173.723 276.156C173.117 276.156 172.566 276.048 172.072 275.831C171.587 275.606 171.197 275.294 170.902 274.895C170.616 274.496 170.473 274.028 170.473 273.491C170.473 272.945 170.625 272.455 170.928 272.022C171.24 271.589 171.652 271.294 172.163 271.138C171.704 270.956 171.349 270.692 171.097 270.345C170.846 269.99 170.72 269.6 170.72 269.175C170.72 268.733 170.837 268.33 171.071 267.966C171.305 267.593 171.643 267.299 172.085 267.082C172.536 266.857 173.082 266.744 173.723 266.744C174.365 266.744 174.906 266.857 175.348 267.082C175.799 267.299 176.141 267.593 176.375 267.966C176.609 268.33 176.726 268.733 176.726 269.175C176.726 269.591 176.596 269.981 176.336 270.345C176.085 270.7 175.73 270.965 175.27 271.138C175.782 271.303 176.189 271.602 176.492 272.035C176.804 272.46 176.96 272.945 176.96 273.491C176.96 274.028 176.817 274.496 176.531 274.895C176.245 275.294 175.855 275.606 175.361 275.831C174.876 276.048 174.33 276.156 173.723 276.156ZM173.723 270.696C174.226 270.696 174.62 270.566 174.906 270.306C175.201 270.046 175.348 269.712 175.348 269.305C175.348 268.846 175.205 268.495 174.919 268.252C174.633 268.009 174.235 267.888 173.723 267.888C173.212 267.888 172.813 268.009 172.527 268.252C172.241 268.495 172.098 268.846 172.098 269.305C172.098 269.712 172.241 270.046 172.527 270.306C172.813 270.566 173.212 270.696 173.723 270.696ZM173.723 274.986C174.347 274.986 174.815 274.839 175.127 274.544C175.439 274.241 175.595 273.855 175.595 273.387C175.595 272.867 175.426 272.468 175.088 272.191C174.759 271.905 174.304 271.762 173.723 271.762C173.143 271.762 172.683 271.905 172.345 272.191C172.007 272.468 171.838 272.867 171.838 273.387C171.838 273.855 171.994 274.241 172.306 274.544C172.627 274.839 173.099 274.986 173.723 274.986ZM181.85 276.156C181.209 276.156 180.654 276.043 180.186 275.818C179.718 275.584 179.345 275.268 179.068 274.869C178.799 274.462 178.635 274.002 178.574 273.491H179.926C180.013 273.924 180.229 274.284 180.576 274.57C180.923 274.847 181.352 274.986 181.863 274.986C182.244 274.986 182.574 274.895 182.851 274.713C183.128 274.522 183.345 274.271 183.501 273.959C183.657 273.647 183.735 273.296 183.735 272.906C183.735 272.291 183.562 271.801 183.215 271.437C182.868 271.064 182.431 270.878 181.902 270.878C181.451 270.878 181.066 270.986 180.745 271.203C180.424 271.411 180.19 271.675 180.043 271.996H178.73L179.51 266.9H184.424V268.109H180.55L180.082 270.54C180.281 270.315 180.554 270.128 180.901 269.981C181.256 269.825 181.655 269.747 182.097 269.747C182.712 269.747 183.241 269.89 183.683 270.176C184.125 270.453 184.463 270.83 184.697 271.307C184.94 271.784 185.061 272.312 185.061 272.893C185.061 273.5 184.931 274.05 184.671 274.544C184.411 275.038 184.038 275.432 183.553 275.727C183.076 276.013 182.509 276.156 181.85 276.156Z" fill="black"/>
</g>
<g id="id386" clip-path="url(#clip3_508_2186)">
<g id="Group 450_5">
<path id="Vector 100_5" d="M148.26 309.048L148.714 327.481L137.239 327.636L137.382 330.132L122.249 330.07L122.074 327.001L115.784 326.875L115.883 308.207L148.26 309.048Z" stroke="black"/>
<path id="Vector 101_5" d="M148.362 317.605L116.049 317.261" stroke="black"/>
<path id="Vector 102_5" d="M120.576 317.179L120.474 308.621" stroke="black"/>
</g>
<path id="386" d="M164.835 322.156C164.246 322.156 163.708 322.052 163.223 321.844C162.746 321.627 162.365 321.302 162.079 320.869C161.793 320.436 161.641 319.894 161.624 319.244H162.989C163.006 319.729 163.171 320.141 163.483 320.479C163.804 320.808 164.254 320.973 164.835 320.973C165.39 320.973 165.814 320.821 166.109 320.518C166.404 320.206 166.551 319.82 166.551 319.361C166.551 318.806 166.352 318.395 165.953 318.126C165.563 317.857 165.082 317.723 164.51 317.723H163.834V316.579H164.523C165.034 316.579 165.446 316.458 165.758 316.215C166.079 315.972 166.239 315.63 166.239 315.188C166.239 314.815 166.113 314.512 165.862 314.278C165.619 314.044 165.273 313.927 164.822 313.927C164.354 313.927 163.986 314.066 163.717 314.343C163.448 314.612 163.301 314.95 163.275 315.357H161.91C161.927 314.828 162.057 314.369 162.3 313.979C162.551 313.589 162.894 313.286 163.327 313.069C163.76 312.852 164.259 312.744 164.822 312.744C165.429 312.744 165.936 312.852 166.343 313.069C166.759 313.277 167.071 313.563 167.279 313.927C167.496 314.282 167.604 314.672 167.604 315.097C167.604 315.582 167.47 316.007 167.201 316.371C166.932 316.735 166.573 316.978 166.122 317.099C166.642 317.212 167.071 317.467 167.409 317.866C167.747 318.256 167.916 318.763 167.916 319.387C167.916 319.89 167.799 320.353 167.565 320.778C167.331 321.194 166.984 321.528 166.525 321.779C166.066 322.03 165.502 322.156 164.835 322.156ZM172.723 322.156C172.117 322.156 171.566 322.048 171.072 321.831C170.587 321.606 170.197 321.294 169.902 320.895C169.616 320.496 169.473 320.028 169.473 319.491C169.473 318.945 169.625 318.455 169.928 318.022C170.24 317.589 170.652 317.294 171.163 317.138C170.704 316.956 170.349 316.692 170.097 316.345C169.846 315.99 169.72 315.6 169.72 315.175C169.72 314.733 169.837 314.33 170.071 313.966C170.305 313.593 170.643 313.299 171.085 313.082C171.536 312.857 172.082 312.744 172.723 312.744C173.365 312.744 173.906 312.857 174.348 313.082C174.799 313.299 175.141 313.593 175.375 313.966C175.609 314.33 175.726 314.733 175.726 315.175C175.726 315.591 175.596 315.981 175.336 316.345C175.085 316.7 174.73 316.965 174.27 317.138C174.782 317.303 175.189 317.602 175.492 318.035C175.804 318.46 175.96 318.945 175.96 319.491C175.96 320.028 175.817 320.496 175.531 320.895C175.245 321.294 174.855 321.606 174.361 321.831C173.876 322.048 173.33 322.156 172.723 322.156ZM172.723 316.696C173.226 316.696 173.62 316.566 173.906 316.306C174.201 316.046 174.348 315.712 174.348 315.305C174.348 314.846 174.205 314.495 173.919 314.252C173.633 314.009 173.235 313.888 172.723 313.888C172.212 313.888 171.813 314.009 171.527 314.252C171.241 314.495 171.098 314.846 171.098 315.305C171.098 315.712 171.241 316.046 171.527 316.306C171.813 316.566 172.212 316.696 172.723 316.696ZM172.723 320.986C173.347 320.986 173.815 320.839 174.127 320.544C174.439 320.241 174.595 319.855 174.595 319.387C174.595 318.867 174.426 318.468 174.088 318.191C173.759 317.905 173.304 317.762 172.723 317.762C172.143 317.762 171.683 317.905 171.345 318.191C171.007 318.468 170.838 318.867 170.838 319.387C170.838 319.855 170.994 320.241 171.306 320.544C171.627 320.839 172.099 320.986 172.723 320.986ZM181.019 322.156C180.352 322.156 179.788 322.03 179.329 321.779C178.87 321.528 178.497 321.194 178.211 320.778C177.934 320.362 177.734 319.894 177.613 319.374C177.492 318.854 177.431 318.321 177.431 317.775C177.431 316.77 177.57 315.89 177.847 315.136C178.133 314.382 178.54 313.797 179.069 313.381C179.598 312.956 180.239 312.744 180.993 312.744C181.591 312.744 182.102 312.861 182.527 313.095C182.952 313.329 183.281 313.641 183.515 314.031C183.758 314.421 183.905 314.846 183.957 315.305H182.67C182.592 314.854 182.406 314.508 182.111 314.265C181.816 314.022 181.439 313.901 180.98 313.901C180.347 313.901 179.823 314.2 179.407 314.798C179 315.387 178.783 316.297 178.757 317.528C178.965 317.147 179.286 316.822 179.719 316.553C180.161 316.284 180.668 316.15 181.24 316.15C181.751 316.15 182.228 316.271 182.67 316.514C183.121 316.757 183.485 317.099 183.762 317.541C184.048 317.974 184.191 318.49 184.191 319.088C184.191 319.617 184.061 320.115 183.801 320.583C183.541 321.051 183.173 321.432 182.696 321.727C182.228 322.013 181.669 322.156 181.019 322.156ZM180.941 320.96C181.305 320.96 181.63 320.882 181.916 320.726C182.202 320.57 182.427 320.358 182.592 320.089C182.757 319.812 182.839 319.5 182.839 319.153C182.839 318.598 182.657 318.156 182.293 317.827C181.938 317.498 181.483 317.333 180.928 317.333C180.564 317.333 180.235 317.415 179.94 317.58C179.654 317.745 179.429 317.966 179.264 318.243C179.099 318.512 179.017 318.811 179.017 319.14C179.017 319.495 179.099 319.812 179.264 320.089C179.437 320.358 179.667 320.57 179.953 320.726C180.248 320.882 180.577 320.96 180.941 320.96Z" fill="black"/>
</g>
<g id="id387" clip-path="url(#clip4_508_2186)">
<g id="Group 450_6">
<path id="Vector 100_6" d="M148.86 353.946L149.621 372.369L138.151 372.715L138.334 375.208L123.203 375.398L122.976 372.332L116.686 372.311L116.474 353.644L148.86 353.946Z" stroke="black"/>
<path id="Vector 101_6" d="M149.104 362.502L116.79 362.695" stroke="black"/>
<path id="Vector 102_6" d="M121.315 362.536L121.071 353.981" stroke="black"/>
</g>
<path id="387" d="M164.835 367.156C164.246 367.156 163.708 367.052 163.223 366.844C162.746 366.627 162.365 366.302 162.079 365.869C161.793 365.436 161.641 364.894 161.624 364.244H162.989C163.006 364.729 163.171 365.141 163.483 365.479C163.804 365.808 164.254 365.973 164.835 365.973C165.39 365.973 165.814 365.821 166.109 365.518C166.404 365.206 166.551 364.82 166.551 364.361C166.551 363.806 166.352 363.395 165.953 363.126C165.563 362.857 165.082 362.723 164.51 362.723H163.834V361.579H164.523C165.034 361.579 165.446 361.458 165.758 361.215C166.079 360.972 166.239 360.63 166.239 360.188C166.239 359.815 166.113 359.512 165.862 359.278C165.619 359.044 165.273 358.927 164.822 358.927C164.354 358.927 163.986 359.066 163.717 359.343C163.448 359.612 163.301 359.95 163.275 360.357H161.91C161.927 359.828 162.057 359.369 162.3 358.979C162.551 358.589 162.894 358.286 163.327 358.069C163.76 357.852 164.259 357.744 164.822 357.744C165.429 357.744 165.936 357.852 166.343 358.069C166.759 358.277 167.071 358.563 167.279 358.927C167.496 359.282 167.604 359.672 167.604 360.097C167.604 360.582 167.47 361.007 167.201 361.371C166.932 361.735 166.573 361.978 166.122 362.099C166.642 362.212 167.071 362.467 167.409 362.866C167.747 363.256 167.916 363.763 167.916 364.387C167.916 364.89 167.799 365.353 167.565 365.778C167.331 366.194 166.984 366.528 166.525 366.779C166.066 367.03 165.502 367.156 164.835 367.156ZM172.723 367.156C172.117 367.156 171.566 367.048 171.072 366.831C170.587 366.606 170.197 366.294 169.902 365.895C169.616 365.496 169.473 365.028 169.473 364.491C169.473 363.945 169.625 363.455 169.928 363.022C170.24 362.589 170.652 362.294 171.163 362.138C170.704 361.956 170.349 361.692 170.097 361.345C169.846 360.99 169.72 360.6 169.72 360.175C169.72 359.733 169.837 359.33 170.071 358.966C170.305 358.593 170.643 358.299 171.085 358.082C171.536 357.857 172.082 357.744 172.723 357.744C173.365 357.744 173.906 357.857 174.348 358.082C174.799 358.299 175.141 358.593 175.375 358.966C175.609 359.33 175.726 359.733 175.726 360.175C175.726 360.591 175.596 360.981 175.336 361.345C175.085 361.7 174.73 361.965 174.27 362.138C174.782 362.303 175.189 362.602 175.492 363.035C175.804 363.46 175.96 363.945 175.96 364.491C175.96 365.028 175.817 365.496 175.531 365.895C175.245 366.294 174.855 366.606 174.361 366.831C173.876 367.048 173.33 367.156 172.723 367.156ZM172.723 361.696C173.226 361.696 173.62 361.566 173.906 361.306C174.201 361.046 174.348 360.712 174.348 360.305C174.348 359.846 174.205 359.495 173.919 359.252C173.633 359.009 173.235 358.888 172.723 358.888C172.212 358.888 171.813 359.009 171.527 359.252C171.241 359.495 171.098 359.846 171.098 360.305C171.098 360.712 171.241 361.046 171.527 361.306C171.813 361.566 172.212 361.696 172.723 361.696ZM172.723 365.986C173.347 365.986 173.815 365.839 174.127 365.544C174.439 365.241 174.595 364.855 174.595 364.387C174.595 363.867 174.426 363.468 174.088 363.191C173.759 362.905 173.304 362.762 172.723 362.762C172.143 362.762 171.683 362.905 171.345 363.191C171.007 363.468 170.838 363.867 170.838 364.387C170.838 364.855 170.994 365.241 171.306 365.544C171.627 365.839 172.099 365.986 172.723 365.986ZM178.074 367L181.597 359.083H176.865V357.9H183.014V358.901L179.517 367H178.074Z" fill="black"/>
</g>
<g id="id389" clip-path="url(#clip5_508_2186)">
<g id="Group 450_7">
<path id="Vector 100_7" d="M151.083 394.764L153.234 413.077L141.822 414.289L142.194 416.76L127.119 418.093L126.662 415.053L120.388 415.507L118.766 396.91L151.083 394.764Z" stroke="black"/>
<path id="Vector 101_7" d="M151.973 403.275L119.765 405.909" stroke="black"/>
<path id="Vector 102_7" d="M124.266 405.411L123.375 396.899" stroke="black"/>
</g>
<path id="388" d="M167.835 409.156C167.246 409.156 166.708 409.052 166.223 408.844C165.746 408.627 165.365 408.302 165.079 407.869C164.793 407.436 164.641 406.894 164.624 406.244H165.989C166.006 406.729 166.171 407.141 166.483 407.479C166.804 407.808 167.254 407.973 167.835 407.973C168.39 407.973 168.814 407.821 169.109 407.518C169.404 407.206 169.551 406.82 169.551 406.361C169.551 405.806 169.352 405.395 168.953 405.126C168.563 404.857 168.082 404.723 167.51 404.723H166.834V403.579H167.523C168.034 403.579 168.446 403.458 168.758 403.215C169.079 402.972 169.239 402.63 169.239 402.188C169.239 401.815 169.113 401.512 168.862 401.278C168.619 401.044 168.273 400.927 167.822 400.927C167.354 400.927 166.986 401.066 166.717 401.343C166.448 401.612 166.301 401.95 166.275 402.357H164.91C164.927 401.828 165.057 401.369 165.3 400.979C165.551 400.589 165.894 400.286 166.327 400.069C166.76 399.852 167.259 399.744 167.822 399.744C168.429 399.744 168.936 399.852 169.343 400.069C169.759 400.277 170.071 400.563 170.279 400.927C170.496 401.282 170.604 401.672 170.604 402.097C170.604 402.582 170.47 403.007 170.201 403.371C169.932 403.735 169.573 403.978 169.122 404.099C169.642 404.212 170.071 404.467 170.409 404.866C170.747 405.256 170.916 405.763 170.916 406.387C170.916 406.89 170.799 407.353 170.565 407.778C170.331 408.194 169.984 408.528 169.525 408.779C169.066 409.03 168.502 409.156 167.835 409.156ZM175.723 409.156C175.117 409.156 174.566 409.048 174.072 408.831C173.587 408.606 173.197 408.294 172.902 407.895C172.616 407.496 172.473 407.028 172.473 406.491C172.473 405.945 172.625 405.455 172.928 405.022C173.24 404.589 173.652 404.294 174.163 404.138C173.704 403.956 173.349 403.692 173.097 403.345C172.846 402.99 172.72 402.6 172.72 402.175C172.72 401.733 172.837 401.33 173.071 400.966C173.305 400.593 173.643 400.299 174.085 400.082C174.536 399.857 175.082 399.744 175.723 399.744C176.365 399.744 176.906 399.857 177.348 400.082C177.799 400.299 178.141 400.593 178.375 400.966C178.609 401.33 178.726 401.733 178.726 402.175C178.726 402.591 178.596 402.981 178.336 403.345C178.085 403.7 177.73 403.965 177.27 404.138C177.782 404.303 178.189 404.602 178.492 405.035C178.804 405.46 178.96 405.945 178.96 406.491C178.96 407.028 178.817 407.496 178.531 407.895C178.245 408.294 177.855 408.606 177.361 408.831C176.876 409.048 176.33 409.156 175.723 409.156ZM175.723 403.696C176.226 403.696 176.62 403.566 176.906 403.306C177.201 403.046 177.348 402.712 177.348 402.305C177.348 401.846 177.205 401.495 176.919 401.252C176.633 401.009 176.235 400.888 175.723 400.888C175.212 400.888 174.813 401.009 174.527 401.252C174.241 401.495 174.098 401.846 174.098 402.305C174.098 402.712 174.241 403.046 174.527 403.306C174.813 403.566 175.212 403.696 175.723 403.696ZM175.723 407.986C176.347 407.986 176.815 407.839 177.127 407.544C177.439 407.241 177.595 406.855 177.595 406.387C177.595 405.867 177.426 405.468 177.088 405.191C176.759 404.905 176.304 404.762 175.723 404.762C175.143 404.762 174.683 404.905 174.345 405.191C174.007 405.468 173.838 405.867 173.838 406.387C173.838 406.855 173.994 407.241 174.306 407.544C174.627 407.839 175.099 407.986 175.723 407.986ZM183.785 409.156C183.178 409.156 182.628 409.048 182.134 408.831C181.649 408.606 181.259 408.294 180.964 407.895C180.678 407.496 180.535 407.028 180.535 406.491C180.535 405.945 180.687 405.455 180.99 405.022C181.302 404.589 181.714 404.294 182.225 404.138C181.766 403.956 181.41 403.692 181.159 403.345C180.908 402.99 180.782 402.6 180.782 402.175C180.782 401.733 180.899 401.33 181.133 400.966C181.367 400.593 181.705 400.299 182.147 400.082C182.598 399.857 183.144 399.744 183.785 399.744C184.426 399.744 184.968 399.857 185.41 400.082C185.861 400.299 186.203 400.593 186.437 400.966C186.671 401.33 186.788 401.733 186.788 402.175C186.788 402.591 186.658 402.981 186.398 403.345C186.147 403.7 185.791 403.965 185.332 404.138C185.843 404.303 186.251 404.602 186.554 405.035C186.866 405.46 187.022 405.945 187.022 406.491C187.022 407.028 186.879 407.496 186.593 407.895C186.307 408.294 185.917 408.606 185.423 408.831C184.938 409.048 184.392 409.156 183.785 409.156ZM183.785 403.696C184.288 403.696 184.682 403.566 184.968 403.306C185.263 403.046 185.41 402.712 185.41 402.305C185.41 401.846 185.267 401.495 184.981 401.252C184.695 401.009 184.296 400.888 183.785 400.888C183.274 400.888 182.875 401.009 182.589 401.252C182.303 401.495 182.16 401.846 182.16 402.305C182.16 402.712 182.303 403.046 182.589 403.306C182.875 403.566 183.274 403.696 183.785 403.696ZM183.785 407.986C184.409 407.986 184.877 407.839 185.189 407.544C185.501 407.241 185.657 406.855 185.657 406.387C185.657 405.867 185.488 405.468 185.15 405.191C184.821 404.905 184.366 404.762 183.785 404.762C183.204 404.762 182.745 404.905 182.407 405.191C182.069 405.468 181.9 405.867 181.9 406.387C181.9 406.855 182.056 407.241 182.368 407.544C182.689 407.839 183.161 407.986 183.785 407.986Z" fill="black"/>
</g>
<g id="id389_2" clip-path="url(#clip6_508_2186)">
<g id="Group 450_8">
<path id="Vector 100_8" d="M167.083 435.764L169.234 454.077L157.822 455.289L158.194 457.76L143.119 459.093L142.662 456.053L136.388 456.507L134.766 437.91L167.083 435.764Z" stroke="black"/>
<path id="Vector 101_8" d="M167.973 444.275L135.765 446.909" stroke="black"/>
<path id="Vector 102_8" d="M140.266 446.411L139.375 437.899" stroke="black"/>
</g>
<path id="389" d="M174.835 465.156C174.246 465.156 173.708 465.052 173.223 464.844C172.746 464.627 172.365 464.302 172.079 463.869C171.793 463.436 171.641 462.894 171.624 462.244H172.989C173.006 462.729 173.171 463.141 173.483 463.479C173.804 463.808 174.254 463.973 174.835 463.973C175.39 463.973 175.814 463.821 176.109 463.518C176.404 463.206 176.551 462.82 176.551 462.361C176.551 461.806 176.352 461.395 175.953 461.126C175.563 460.857 175.082 460.723 174.51 460.723H173.834V459.579H174.523C175.034 459.579 175.446 459.458 175.758 459.215C176.079 458.972 176.239 458.63 176.239 458.188C176.239 457.815 176.113 457.512 175.862 457.278C175.619 457.044 175.273 456.927 174.822 456.927C174.354 456.927 173.986 457.066 173.717 457.343C173.448 457.612 173.301 457.95 173.275 458.357H171.91C171.927 457.828 172.057 457.369 172.3 456.979C172.551 456.589 172.894 456.286 173.327 456.069C173.76 455.852 174.259 455.744 174.822 455.744C175.429 455.744 175.936 455.852 176.343 456.069C176.759 456.277 177.071 456.563 177.279 456.927C177.496 457.282 177.604 457.672 177.604 458.097C177.604 458.582 177.47 459.007 177.201 459.371C176.932 459.735 176.573 459.978 176.122 460.099C176.642 460.212 177.071 460.467 177.409 460.866C177.747 461.256 177.916 461.763 177.916 462.387C177.916 462.89 177.799 463.353 177.565 463.778C177.331 464.194 176.984 464.528 176.525 464.779C176.066 465.03 175.502 465.156 174.835 465.156ZM182.723 465.156C182.117 465.156 181.566 465.048 181.072 464.831C180.587 464.606 180.197 464.294 179.902 463.895C179.616 463.496 179.473 463.028 179.473 462.491C179.473 461.945 179.625 461.455 179.928 461.022C180.24 460.589 180.652 460.294 181.163 460.138C180.704 459.956 180.349 459.692 180.097 459.345C179.846 458.99 179.72 458.6 179.72 458.175C179.72 457.733 179.837 457.33 180.071 456.966C180.305 456.593 180.643 456.299 181.085 456.082C181.536 455.857 182.082 455.744 182.723 455.744C183.365 455.744 183.906 455.857 184.348 456.082C184.799 456.299 185.141 456.593 185.375 456.966C185.609 457.33 185.726 457.733 185.726 458.175C185.726 458.591 185.596 458.981 185.336 459.345C185.085 459.7 184.73 459.965 184.27 460.138C184.782 460.303 185.189 460.602 185.492 461.035C185.804 461.46 185.96 461.945 185.96 462.491C185.96 463.028 185.817 463.496 185.531 463.895C185.245 464.294 184.855 464.606 184.361 464.831C183.876 465.048 183.33 465.156 182.723 465.156ZM182.723 459.696C183.226 459.696 183.62 459.566 183.906 459.306C184.201 459.046 184.348 458.712 184.348 458.305C184.348 457.846 184.205 457.495 183.919 457.252C183.633 457.009 183.235 456.888 182.723 456.888C182.212 456.888 181.813 457.009 181.527 457.252C181.241 457.495 181.098 457.846 181.098 458.305C181.098 458.712 181.241 459.046 181.527 459.306C181.813 459.566 182.212 459.696 182.723 459.696ZM182.723 463.986C183.347 463.986 183.815 463.839 184.127 463.544C184.439 463.241 184.595 462.855 184.595 462.387C184.595 461.867 184.426 461.468 184.088 461.191C183.759 460.905 183.304 460.762 182.723 460.762C182.143 460.762 181.683 460.905 181.345 461.191C181.007 461.468 180.838 461.867 180.838 462.387C180.838 462.855 180.994 463.241 181.306 463.544C181.627 463.839 182.099 463.986 182.723 463.986ZM190.39 465.156C189.792 465.156 189.281 465.039 188.856 464.805C188.431 464.571 188.098 464.259 187.855 463.869C187.621 463.479 187.478 463.054 187.426 462.595H188.713C188.791 463.046 188.977 463.392 189.272 463.635C189.567 463.878 189.944 463.999 190.403 463.999C191.036 463.999 191.556 463.704 191.963 463.115C192.379 462.517 192.6 461.603 192.626 460.372C192.418 460.753 192.093 461.078 191.651 461.347C191.218 461.616 190.715 461.75 190.143 461.75C189.632 461.75 189.151 461.629 188.7 461.386C188.249 461.143 187.885 460.805 187.608 460.372C187.331 459.93 187.192 459.41 187.192 458.812C187.192 458.283 187.322 457.785 187.582 457.317C187.842 456.849 188.206 456.472 188.674 456.186C189.151 455.891 189.714 455.744 190.364 455.744C191.031 455.744 191.595 455.87 192.054 456.121C192.513 456.372 192.882 456.706 193.159 457.122C193.436 457.538 193.636 458.006 193.757 458.526C193.887 459.046 193.952 459.579 193.952 460.125C193.952 461.13 193.809 462.01 193.523 462.764C193.246 463.518 192.843 464.107 192.314 464.532C191.785 464.948 191.144 465.156 190.39 465.156ZM190.455 460.567C190.819 460.567 191.144 460.485 191.43 460.32C191.716 460.155 191.941 459.939 192.106 459.67C192.279 459.393 192.366 459.089 192.366 458.76C192.366 458.405 192.279 458.093 192.106 457.824C191.941 457.547 191.712 457.33 191.417 457.174C191.131 457.018 190.806 456.94 190.442 456.94C190.078 456.94 189.753 457.018 189.467 457.174C189.181 457.33 188.951 457.547 188.778 457.824C188.613 458.093 188.531 458.4 188.531 458.747C188.531 459.302 188.713 459.744 189.077 460.073C189.441 460.402 189.9 460.567 190.455 460.567Z" fill="black"/>
</g>
<g id="id383" clip-path="url(#clip7_508_2186)">
<g id="Group 450_9">
<path id="Vector 100_9" d="M178.552 183.999L176.829 202.357L165.416 201.158L165.263 203.652L150.243 201.806L150.431 198.737L144.2 197.871L146.5 179.345L178.552 183.999Z" stroke="black"/>
<path id="Vector 101_9" d="M177.644 192.51L145.597 188.355" stroke="black"/>
<path id="Vector 102_9" d="M150.103 188.808L151.011 180.297" stroke="black"/>
</g>
<path id="383" d="M179.835 172.156C179.246 172.156 178.708 172.052 178.223 171.844C177.746 171.627 177.365 171.302 177.079 170.869C176.793 170.436 176.641 169.894 176.624 169.244H177.989C178.006 169.729 178.171 170.141 178.483 170.479C178.804 170.808 179.254 170.973 179.835 170.973C180.39 170.973 180.814 170.821 181.109 170.518C181.404 170.206 181.551 169.82 181.551 169.361C181.551 168.806 181.352 168.395 180.953 168.126C180.563 167.857 180.082 167.723 179.51 167.723H178.834V166.579H179.523C180.034 166.579 180.446 166.458 180.758 166.215C181.079 165.972 181.239 165.63 181.239 165.188C181.239 164.815 181.113 164.512 180.862 164.278C180.619 164.044 180.273 163.927 179.822 163.927C179.354 163.927 178.986 164.066 178.717 164.343C178.448 164.612 178.301 164.95 178.275 165.357H176.91C176.927 164.828 177.057 164.369 177.3 163.979C177.551 163.589 177.894 163.286 178.327 163.069C178.76 162.852 179.259 162.744 179.822 162.744C180.429 162.744 180.936 162.852 181.343 163.069C181.759 163.277 182.071 163.563 182.279 163.927C182.496 164.282 182.604 164.672 182.604 165.097C182.604 165.582 182.47 166.007 182.201 166.371C181.932 166.735 181.573 166.978 181.122 167.099C181.642 167.212 182.071 167.467 182.409 167.866C182.747 168.256 182.916 168.763 182.916 169.387C182.916 169.89 182.799 170.353 182.565 170.778C182.331 171.194 181.984 171.528 181.525 171.779C181.066 172.03 180.502 172.156 179.835 172.156ZM187.723 172.156C187.117 172.156 186.566 172.048 186.072 171.831C185.587 171.606 185.197 171.294 184.902 170.895C184.616 170.496 184.473 170.028 184.473 169.491C184.473 168.945 184.625 168.455 184.928 168.022C185.24 167.589 185.652 167.294 186.163 167.138C185.704 166.956 185.349 166.692 185.097 166.345C184.846 165.99 184.72 165.6 184.72 165.175C184.72 164.733 184.837 164.33 185.071 163.966C185.305 163.593 185.643 163.299 186.085 163.082C186.536 162.857 187.082 162.744 187.723 162.744C188.365 162.744 188.906 162.857 189.348 163.082C189.799 163.299 190.141 163.593 190.375 163.966C190.609 164.33 190.726 164.733 190.726 165.175C190.726 165.591 190.596 165.981 190.336 166.345C190.085 166.7 189.73 166.965 189.27 167.138C189.782 167.303 190.189 167.602 190.492 168.035C190.804 168.46 190.96 168.945 190.96 169.491C190.96 170.028 190.817 170.496 190.531 170.895C190.245 171.294 189.855 171.606 189.361 171.831C188.876 172.048 188.33 172.156 187.723 172.156ZM187.723 166.696C188.226 166.696 188.62 166.566 188.906 166.306C189.201 166.046 189.348 165.712 189.348 165.305C189.348 164.846 189.205 164.495 188.919 164.252C188.633 164.009 188.235 163.888 187.723 163.888C187.212 163.888 186.813 164.009 186.527 164.252C186.241 164.495 186.098 164.846 186.098 165.305C186.098 165.712 186.241 166.046 186.527 166.306C186.813 166.566 187.212 166.696 187.723 166.696ZM187.723 170.986C188.347 170.986 188.815 170.839 189.127 170.544C189.439 170.241 189.595 169.855 189.595 169.387C189.595 168.867 189.426 168.468 189.088 168.191C188.759 167.905 188.304 167.762 187.723 167.762C187.143 167.762 186.683 167.905 186.345 168.191C186.007 168.468 185.838 168.867 185.838 169.387C185.838 169.855 185.994 170.241 186.306 170.544C186.627 170.839 187.099 170.986 187.723 170.986ZM195.59 172.156C195.001 172.156 194.463 172.052 193.978 171.844C193.501 171.627 193.12 171.302 192.834 170.869C192.548 170.436 192.396 169.894 192.379 169.244H193.744C193.761 169.729 193.926 170.141 194.238 170.479C194.559 170.808 195.009 170.973 195.59 170.973C196.145 170.973 196.569 170.821 196.864 170.518C197.159 170.206 197.306 169.82 197.306 169.361C197.306 168.806 197.107 168.395 196.708 168.126C196.318 167.857 195.837 167.723 195.265 167.723H194.589V166.579H195.278C195.789 166.579 196.201 166.458 196.513 166.215C196.834 165.972 196.994 165.63 196.994 165.188C196.994 164.815 196.868 164.512 196.617 164.278C196.374 164.044 196.028 163.927 195.577 163.927C195.109 163.927 194.741 164.066 194.472 164.343C194.203 164.612 194.056 164.95 194.03 165.357H192.665C192.682 164.828 192.812 164.369 193.055 163.979C193.306 163.589 193.649 163.286 194.082 163.069C194.515 162.852 195.014 162.744 195.577 162.744C196.184 162.744 196.691 162.852 197.098 163.069C197.514 163.277 197.826 163.563 198.034 163.927C198.251 164.282 198.359 164.672 198.359 165.097C198.359 165.582 198.225 166.007 197.956 166.371C197.687 166.735 197.328 166.978 196.877 167.099C197.397 167.212 197.826 167.467 198.164 167.866C198.502 168.256 198.671 168.763 198.671 169.387C198.671 169.89 198.554 170.353 198.32 170.778C198.086 171.194 197.739 171.528 197.28 171.779C196.821 172.03 196.257 172.156 195.59 172.156Z" fill="black"/>
</g>
<g id="id395">
<g id="Group 450_10">
<path id="Vector 100_10" d="M236.401 260.929L237 242.499L248.465 242.999L248.5 240.5L263.57 241.426L263.5 244.499L269.842 244.984L268.678 263.616L236.401 260.929Z" stroke="black"/>
<path id="Vector 101_10" d="M236.788 252.379L269.029 254.567" stroke="black"/>
<path id="Vector 102_10" d="M264.504 254.393L264.118 262.943" stroke="black"/>
</g>
<path id="395" d="M211.835 250.156C211.246 250.156 210.708 250.052 210.223 249.844C209.746 249.627 209.365 249.302 209.079 248.869C208.793 248.436 208.641 247.894 208.624 247.244H209.989C210.006 247.729 210.171 248.141 210.483 248.479C210.804 248.808 211.254 248.973 211.835 248.973C212.39 248.973 212.814 248.821 213.109 248.518C213.404 248.206 213.551 247.82 213.551 247.361C213.551 246.806 213.352 246.395 212.953 246.126C212.563 245.857 212.082 245.723 211.51 245.723H210.834V244.579H211.523C212.034 244.579 212.446 244.458 212.758 244.215C213.079 243.972 213.239 243.63 213.239 243.188C213.239 242.815 213.113 242.512 212.862 242.278C212.619 242.044 212.273 241.927 211.822 241.927C211.354 241.927 210.986 242.066 210.717 242.343C210.448 242.612 210.301 242.95 210.275 243.357H208.91C208.927 242.828 209.057 242.369 209.3 241.979C209.551 241.589 209.894 241.286 210.327 241.069C210.76 240.852 211.259 240.744 211.822 240.744C212.429 240.744 212.936 240.852 213.343 241.069C213.759 241.277 214.071 241.563 214.279 241.927C214.496 242.282 214.604 242.672 214.604 243.097C214.604 243.582 214.47 244.007 214.201 244.371C213.932 244.735 213.573 244.978 213.122 245.099C213.642 245.212 214.071 245.467 214.409 245.866C214.747 246.256 214.916 246.763 214.916 247.387C214.916 247.89 214.799 248.353 214.565 248.778C214.331 249.194 213.984 249.528 213.525 249.779C213.066 250.03 212.502 250.156 211.835 250.156ZM219.329 250.156C218.731 250.156 218.219 250.039 217.795 249.805C217.37 249.571 217.036 249.259 216.794 248.869C216.56 248.479 216.417 248.054 216.365 247.595H217.652C217.73 248.046 217.916 248.392 218.211 248.635C218.505 248.878 218.882 248.999 219.342 248.999C219.974 248.999 220.494 248.704 220.902 248.115C221.318 247.517 221.539 246.603 221.565 245.372C221.357 245.753 221.032 246.078 220.59 246.347C220.156 246.616 219.654 246.75 219.082 246.75C218.57 246.75 218.089 246.629 217.639 246.386C217.188 246.143 216.824 245.805 216.547 245.372C216.269 244.93 216.131 244.41 216.131 243.812C216.131 243.283 216.261 242.785 216.521 242.317C216.781 241.849 217.145 241.472 217.613 241.186C218.089 240.891 218.653 240.744 219.303 240.744C219.97 240.744 220.533 240.87 220.993 241.121C221.452 241.372 221.82 241.706 222.098 242.122C222.375 242.538 222.574 243.006 222.696 243.526C222.826 244.046 222.891 244.579 222.891 245.125C222.891 246.13 222.748 247.01 222.462 247.764C222.184 248.518 221.781 249.107 221.253 249.532C220.724 249.948 220.083 250.156 219.329 250.156ZM219.394 245.567C219.758 245.567 220.083 245.485 220.369 245.32C220.655 245.155 220.88 244.939 221.045 244.67C221.218 244.393 221.305 244.089 221.305 243.76C221.305 243.405 221.218 243.093 221.045 242.824C220.88 242.547 220.65 242.33 220.356 242.174C220.07 242.018 219.745 241.94 219.381 241.94C219.017 241.94 218.692 242.018 218.406 242.174C218.12 242.33 217.89 242.547 217.717 242.824C217.552 243.093 217.47 243.4 217.47 243.747C217.47 244.302 217.652 244.744 218.016 245.073C218.38 245.402 218.839 245.567 219.394 245.567ZM227.659 250.156C227.018 250.156 226.463 250.043 225.995 249.818C225.527 249.584 225.155 249.268 224.877 248.869C224.609 248.462 224.444 248.002 224.383 247.491H225.735C225.822 247.924 226.039 248.284 226.385 248.57C226.732 248.847 227.161 248.986 227.672 248.986C228.054 248.986 228.383 248.895 228.66 248.713C228.938 248.522 229.154 248.271 229.31 247.959C229.466 247.647 229.544 247.296 229.544 246.906C229.544 246.291 229.371 245.801 229.024 245.437C228.678 245.064 228.24 244.878 227.711 244.878C227.261 244.878 226.875 244.986 226.554 245.203C226.234 245.411 226 245.675 225.852 245.996H224.539L225.319 240.9H230.233V242.109H226.359L225.891 244.54C226.091 244.315 226.364 244.128 226.71 243.981C227.066 243.825 227.464 243.747 227.906 243.747C228.522 243.747 229.05 243.89 229.492 244.176C229.934 244.453 230.272 244.83 230.506 245.307C230.749 245.784 230.87 246.312 230.87 246.893C230.87 247.5 230.74 248.05 230.48 248.544C230.22 249.038 229.848 249.432 229.362 249.727C228.886 250.013 228.318 250.156 227.659 250.156Z" fill="black"/>
</g>
<g id="id394" clip-path="url(#clip8_508_2186)">
<g id="Group 450_11">
<path id="Vector 100_11" d="M234.985 303.994L234.5 285.5L245.7 285.5L245.7 282.835L260.833 282.771L260.833 285.915L267.322 285.915L267.368 304.584L234.985 303.994Z" stroke="black"/>
<path id="Vector 101_11" d="M234.816 295.438L267.131 295.532" stroke="black"/>
<path id="Vector 102_11" d="M262.605 295.649L262.773 304.206" stroke="black"/>
</g>
<path id="394" d="M207.835 294.156C207.246 294.156 206.708 294.052 206.223 293.844C205.746 293.627 205.365 293.302 205.079 292.869C204.793 292.436 204.641 291.894 204.624 291.244H205.989C206.006 291.729 206.171 292.141 206.483 292.479C206.804 292.808 207.254 292.973 207.835 292.973C208.39 292.973 208.814 292.821 209.109 292.518C209.404 292.206 209.551 291.82 209.551 291.361C209.551 290.806 209.352 290.395 208.953 290.126C208.563 289.857 208.082 289.723 207.51 289.723H206.834V288.579H207.523C208.034 288.579 208.446 288.458 208.758 288.215C209.079 287.972 209.239 287.63 209.239 287.188C209.239 286.815 209.113 286.512 208.862 286.278C208.619 286.044 208.273 285.927 207.822 285.927C207.354 285.927 206.986 286.066 206.717 286.343C206.448 286.612 206.301 286.95 206.275 287.357H204.91C204.927 286.828 205.057 286.369 205.3 285.979C205.551 285.589 205.894 285.286 206.327 285.069C206.76 284.852 207.259 284.744 207.822 284.744C208.429 284.744 208.936 284.852 209.343 285.069C209.759 285.277 210.071 285.563 210.279 285.927C210.496 286.282 210.604 286.672 210.604 287.097C210.604 287.582 210.47 288.007 210.201 288.371C209.932 288.735 209.573 288.978 209.122 289.099C209.642 289.212 210.071 289.467 210.409 289.866C210.747 290.256 210.916 290.763 210.916 291.387C210.916 291.89 210.799 292.353 210.565 292.778C210.331 293.194 209.984 293.528 209.525 293.779C209.066 294.03 208.502 294.156 207.835 294.156ZM215.329 294.156C214.731 294.156 214.219 294.039 213.795 293.805C213.37 293.571 213.036 293.259 212.794 292.869C212.56 292.479 212.417 292.054 212.365 291.595H213.652C213.73 292.046 213.916 292.392 214.211 292.635C214.505 292.878 214.882 292.999 215.342 292.999C215.974 292.999 216.494 292.704 216.902 292.115C217.318 291.517 217.539 290.603 217.565 289.372C217.357 289.753 217.032 290.078 216.59 290.347C216.156 290.616 215.654 290.75 215.082 290.75C214.57 290.75 214.089 290.629 213.639 290.386C213.188 290.143 212.824 289.805 212.547 289.372C212.269 288.93 212.131 288.41 212.131 287.812C212.131 287.283 212.261 286.785 212.521 286.317C212.781 285.849 213.145 285.472 213.613 285.186C214.089 284.891 214.653 284.744 215.303 284.744C215.97 284.744 216.533 284.87 216.993 285.121C217.452 285.372 217.82 285.706 218.098 286.122C218.375 286.538 218.574 287.006 218.696 287.526C218.826 288.046 218.891 288.579 218.891 289.125C218.891 290.13 218.748 291.01 218.462 291.764C218.184 292.518 217.781 293.107 217.253 293.532C216.724 293.948 216.083 294.156 215.329 294.156ZM215.394 289.567C215.758 289.567 216.083 289.485 216.369 289.32C216.655 289.155 216.88 288.939 217.045 288.67C217.218 288.393 217.305 288.089 217.305 287.76C217.305 287.405 217.218 287.093 217.045 286.824C216.88 286.547 216.65 286.33 216.356 286.174C216.07 286.018 215.745 285.94 215.381 285.94C215.017 285.94 214.692 286.018 214.406 286.174C214.12 286.33 213.89 286.547 213.717 286.824C213.552 287.093 213.47 287.4 213.47 287.747C213.47 288.302 213.652 288.744 214.016 289.073C214.38 289.402 214.839 289.567 215.394 289.567ZM224.634 294V292.18H220.071V291.088L224.413 284.9H225.999V290.984H227.273V292.18H225.999V294H224.634ZM221.566 290.984H224.712V286.421L221.566 290.984Z" fill="black"/>
</g>
<g id="id393">
<g id="Group 450_12">
<path id="Vector 100_12" d="M233.985 348.023L233.5 329.5L244.7 329.5L244.7 326.864L259.833 326.8L259.833 329.945L266.322 329.945L266.368 348.613L233.985 348.023Z" stroke="black"/>
<path id="Vector 101_12" d="M233.816 339.467L266.131 339.561" stroke="black"/>
<path id="Vector 102_12" d="M261.605 339.678L261.773 348.235" stroke="black"/>
</g>
<path id="393" d="M206.835 342.156C206.246 342.156 205.708 342.052 205.223 341.844C204.746 341.627 204.365 341.302 204.079 340.869C203.793 340.436 203.641 339.894 203.624 339.244H204.989C205.006 339.729 205.171 340.141 205.483 340.479C205.804 340.808 206.254 340.973 206.835 340.973C207.39 340.973 207.814 340.821 208.109 340.518C208.404 340.206 208.551 339.82 208.551 339.361C208.551 338.806 208.352 338.395 207.953 338.126C207.563 337.857 207.082 337.723 206.51 337.723H205.834V336.579H206.523C207.034 336.579 207.446 336.458 207.758 336.215C208.079 335.972 208.239 335.63 208.239 335.188C208.239 334.815 208.113 334.512 207.862 334.278C207.619 334.044 207.273 333.927 206.822 333.927C206.354 333.927 205.986 334.066 205.717 334.343C205.448 334.612 205.301 334.95 205.275 335.357H203.91C203.927 334.828 204.057 334.369 204.3 333.979C204.551 333.589 204.894 333.286 205.327 333.069C205.76 332.852 206.259 332.744 206.822 332.744C207.429 332.744 207.936 332.852 208.343 333.069C208.759 333.277 209.071 333.563 209.279 333.927C209.496 334.282 209.604 334.672 209.604 335.097C209.604 335.582 209.47 336.007 209.201 336.371C208.932 336.735 208.573 336.978 208.122 337.099C208.642 337.212 209.071 337.467 209.409 337.866C209.747 338.256 209.916 338.763 209.916 339.387C209.916 339.89 209.799 340.353 209.565 340.778C209.331 341.194 208.984 341.528 208.525 341.779C208.066 342.03 207.502 342.156 206.835 342.156ZM214.329 342.156C213.731 342.156 213.219 342.039 212.795 341.805C212.37 341.571 212.036 341.259 211.794 340.869C211.56 340.479 211.417 340.054 211.365 339.595H212.652C212.73 340.046 212.916 340.392 213.211 340.635C213.505 340.878 213.882 340.999 214.342 340.999C214.974 340.999 215.494 340.704 215.902 340.115C216.318 339.517 216.539 338.603 216.565 337.372C216.357 337.753 216.032 338.078 215.59 338.347C215.156 338.616 214.654 338.75 214.082 338.75C213.57 338.75 213.089 338.629 212.639 338.386C212.188 338.143 211.824 337.805 211.547 337.372C211.269 336.93 211.131 336.41 211.131 335.812C211.131 335.283 211.261 334.785 211.521 334.317C211.781 333.849 212.145 333.472 212.613 333.186C213.089 332.891 213.653 332.744 214.303 332.744C214.97 332.744 215.533 332.87 215.993 333.121C216.452 333.372 216.82 333.706 217.098 334.122C217.375 334.538 217.574 335.006 217.696 335.526C217.826 336.046 217.891 336.579 217.891 337.125C217.891 338.13 217.748 339.01 217.462 339.764C217.184 340.518 216.781 341.107 216.253 341.532C215.724 341.948 215.083 342.156 214.329 342.156ZM214.394 337.567C214.758 337.567 215.083 337.485 215.369 337.32C215.655 337.155 215.88 336.939 216.045 336.67C216.218 336.393 216.305 336.089 216.305 335.76C216.305 335.405 216.218 335.093 216.045 334.824C215.88 334.547 215.65 334.33 215.356 334.174C215.07 334.018 214.745 333.94 214.381 333.94C214.017 333.94 213.692 334.018 213.406 334.174C213.12 334.33 212.89 334.547 212.717 334.824C212.552 335.093 212.47 335.4 212.47 335.747C212.47 336.302 212.652 336.744 213.016 337.073C213.38 337.402 213.839 337.567 214.394 337.567ZM222.234 342.156C221.645 342.156 221.108 342.052 220.622 341.844C220.146 341.627 219.764 341.302 219.478 340.869C219.192 340.436 219.041 339.894 219.023 339.244H220.388C220.406 339.729 220.57 340.141 220.882 340.479C221.203 340.808 221.654 340.973 222.234 340.973C222.789 340.973 223.214 340.821 223.508 340.518C223.803 340.206 223.95 339.82 223.95 339.361C223.95 338.806 223.751 338.395 223.352 338.126C222.962 337.857 222.481 337.723 221.909 337.723H221.233V336.579H221.922C222.434 336.579 222.845 336.458 223.157 336.215C223.478 335.972 223.638 335.63 223.638 335.188C223.638 334.815 223.513 334.512 223.261 334.278C223.019 334.044 222.672 333.927 222.221 333.927C221.753 333.927 221.385 334.066 221.116 334.343C220.848 334.612 220.7 334.95 220.674 335.357H219.309C219.327 334.828 219.457 334.369 219.699 333.979C219.951 333.589 220.293 333.286 220.726 333.069C221.16 332.852 221.658 332.744 222.221 332.744C222.828 332.744 223.335 332.852 223.742 333.069C224.158 333.277 224.47 333.563 224.678 333.927C224.895 334.282 225.003 334.672 225.003 335.097C225.003 335.582 224.869 336.007 224.6 336.371C224.332 336.735 223.972 336.978 223.521 337.099C224.041 337.212 224.47 337.467 224.808 337.866C225.146 338.256 225.315 338.763 225.315 339.387C225.315 339.89 225.198 340.353 224.964 340.778C224.73 341.194 224.384 341.528 223.924 341.779C223.465 342.03 222.902 342.156 222.234 342.156Z" fill="black"/>
</g>
<g id="id392" clip-path="url(#clip9_508_2186)">
<g id="Group 450_13">
<path id="Vector 100_13" d="M238.118 394.393L236.52 375.932L247.7 375.259L247.542 372.628L262.643 371.655L262.832 374.794L269.31 374.404L270.478 393.036L238.118 394.393Z" stroke="black"/>
<path id="Vector 101_13" d="M237.436 385.861L269.698 384.014" stroke="black"/>
<path id="Vector 102_13" d="M265.186 384.404L265.868 392.935" stroke="black"/>
</g>
<path id="392" d="M206.835 390.156C206.246 390.156 205.708 390.052 205.223 389.844C204.746 389.627 204.365 389.302 204.079 388.869C203.793 388.436 203.641 387.894 203.624 387.244H204.989C205.006 387.729 205.171 388.141 205.483 388.479C205.804 388.808 206.254 388.973 206.835 388.973C207.39 388.973 207.814 388.821 208.109 388.518C208.404 388.206 208.551 387.82 208.551 387.361C208.551 386.806 208.352 386.395 207.953 386.126C207.563 385.857 207.082 385.723 206.51 385.723H205.834V384.579H206.523C207.034 384.579 207.446 384.458 207.758 384.215C208.079 383.972 208.239 383.63 208.239 383.188C208.239 382.815 208.113 382.512 207.862 382.278C207.619 382.044 207.273 381.927 206.822 381.927C206.354 381.927 205.986 382.066 205.717 382.343C205.448 382.612 205.301 382.95 205.275 383.357H203.91C203.927 382.828 204.057 382.369 204.3 381.979C204.551 381.589 204.894 381.286 205.327 381.069C205.76 380.852 206.259 380.744 206.822 380.744C207.429 380.744 207.936 380.852 208.343 381.069C208.759 381.277 209.071 381.563 209.279 381.927C209.496 382.282 209.604 382.672 209.604 383.097C209.604 383.582 209.47 384.007 209.201 384.371C208.932 384.735 208.573 384.978 208.122 385.099C208.642 385.212 209.071 385.467 209.409 385.866C209.747 386.256 209.916 386.763 209.916 387.387C209.916 387.89 209.799 388.353 209.565 388.778C209.331 389.194 208.984 389.528 208.525 389.779C208.066 390.03 207.502 390.156 206.835 390.156ZM214.329 390.156C213.731 390.156 213.219 390.039 212.795 389.805C212.37 389.571 212.036 389.259 211.794 388.869C211.56 388.479 211.417 388.054 211.365 387.595H212.652C212.73 388.046 212.916 388.392 213.211 388.635C213.505 388.878 213.882 388.999 214.342 388.999C214.974 388.999 215.494 388.704 215.902 388.115C216.318 387.517 216.539 386.603 216.565 385.372C216.357 385.753 216.032 386.078 215.59 386.347C215.156 386.616 214.654 386.75 214.082 386.75C213.57 386.75 213.089 386.629 212.639 386.386C212.188 386.143 211.824 385.805 211.547 385.372C211.269 384.93 211.131 384.41 211.131 383.812C211.131 383.283 211.261 382.785 211.521 382.317C211.781 381.849 212.145 381.472 212.613 381.186C213.089 380.891 213.653 380.744 214.303 380.744C214.97 380.744 215.533 380.87 215.993 381.121C216.452 381.372 216.82 381.706 217.098 382.122C217.375 382.538 217.574 383.006 217.696 383.526C217.826 384.046 217.891 384.579 217.891 385.125C217.891 386.13 217.748 387.01 217.462 387.764C217.184 388.518 216.781 389.107 216.253 389.532C215.724 389.948 215.083 390.156 214.329 390.156ZM214.394 385.567C214.758 385.567 215.083 385.485 215.369 385.32C215.655 385.155 215.88 384.939 216.045 384.67C216.218 384.393 216.305 384.089 216.305 383.76C216.305 383.405 216.218 383.093 216.045 382.824C215.88 382.547 215.65 382.33 215.356 382.174C215.07 382.018 214.745 381.94 214.381 381.94C214.017 381.94 213.692 382.018 213.406 382.174C213.12 382.33 212.89 382.547 212.717 382.824C212.552 383.093 212.47 383.4 212.47 383.747C212.47 384.302 212.652 384.744 213.016 385.073C213.38 385.402 213.839 385.567 214.394 385.567ZM219.14 390V389.012C219.73 388.544 220.293 388.072 220.83 387.595C221.368 387.118 221.844 386.65 222.26 386.191C222.685 385.723 223.019 385.268 223.261 384.826C223.504 384.375 223.625 383.942 223.625 383.526C223.625 383.249 223.578 382.989 223.482 382.746C223.387 382.495 223.231 382.295 223.014 382.148C222.798 381.992 222.507 381.914 222.143 381.914C221.597 381.914 221.186 382.087 220.908 382.434C220.64 382.781 220.51 383.197 220.518 383.682H219.179C219.188 383.041 219.322 382.503 219.582 382.07C219.851 381.637 220.206 381.307 220.648 381.082C221.099 380.857 221.606 380.744 222.169 380.744C223.027 380.744 223.712 380.987 224.223 381.472C224.743 381.949 225.003 382.616 225.003 383.474C225.003 383.985 224.878 384.492 224.626 384.995C224.384 385.498 224.063 385.983 223.664 386.451C223.274 386.91 222.854 387.344 222.403 387.751C221.953 388.158 221.524 388.527 221.116 388.856H225.276V390H219.14Z" fill="black"/>
</g>
<g id="id391" clip-path="url(#clip10_508_2186)">
<g id="Group 450_14">
<path id="Vector 100_14" d="M241.815 433.873L240.218 415.413L251.398 414.74L251.239 412.109L266.341 411.136L266.53 414.274L273.007 413.885L274.175 432.516L241.815 433.873Z" stroke="black"/>
<path id="Vector 101_14" d="M241.133 425.342L273.395 423.494" stroke="black"/>
<path id="Vector 102_14" d="M268.883 423.884L269.565 432.416" stroke="black"/>
</g>
<path id="391" d="M212.835 429.156C212.246 429.156 211.708 429.052 211.223 428.844C210.746 428.627 210.365 428.302 210.079 427.869C209.793 427.436 209.641 426.894 209.624 426.244H210.989C211.006 426.729 211.171 427.141 211.483 427.479C211.804 427.808 212.254 427.973 212.835 427.973C213.39 427.973 213.814 427.821 214.109 427.518C214.404 427.206 214.551 426.82 214.551 426.361C214.551 425.806 214.352 425.395 213.953 425.126C213.563 424.857 213.082 424.723 212.51 424.723H211.834V423.579H212.523C213.034 423.579 213.446 423.458 213.758 423.215C214.079 422.972 214.239 422.63 214.239 422.188C214.239 421.815 214.113 421.512 213.862 421.278C213.619 421.044 213.273 420.927 212.822 420.927C212.354 420.927 211.986 421.066 211.717 421.343C211.448 421.612 211.301 421.95 211.275 422.357H209.91C209.927 421.828 210.057 421.369 210.3 420.979C210.551 420.589 210.894 420.286 211.327 420.069C211.76 419.852 212.259 419.744 212.822 419.744C213.429 419.744 213.936 419.852 214.343 420.069C214.759 420.277 215.071 420.563 215.279 420.927C215.496 421.282 215.604 421.672 215.604 422.097C215.604 422.582 215.47 423.007 215.201 423.371C214.932 423.735 214.573 423.978 214.122 424.099C214.642 424.212 215.071 424.467 215.409 424.866C215.747 425.256 215.916 425.763 215.916 426.387C215.916 426.89 215.799 427.353 215.565 427.778C215.331 428.194 214.984 428.528 214.525 428.779C214.066 429.03 213.502 429.156 212.835 429.156ZM220.329 429.156C219.731 429.156 219.219 429.039 218.795 428.805C218.37 428.571 218.036 428.259 217.794 427.869C217.56 427.479 217.417 427.054 217.365 426.595H218.652C218.73 427.046 218.916 427.392 219.211 427.635C219.505 427.878 219.882 427.999 220.342 427.999C220.974 427.999 221.494 427.704 221.902 427.115C222.318 426.517 222.539 425.603 222.565 424.372C222.357 424.753 222.032 425.078 221.59 425.347C221.156 425.616 220.654 425.75 220.082 425.75C219.57 425.75 219.089 425.629 218.639 425.386C218.188 425.143 217.824 424.805 217.547 424.372C217.269 423.93 217.131 423.41 217.131 422.812C217.131 422.283 217.261 421.785 217.521 421.317C217.781 420.849 218.145 420.472 218.613 420.186C219.089 419.891 219.653 419.744 220.303 419.744C220.97 419.744 221.533 419.87 221.993 420.121C222.452 420.372 222.82 420.706 223.098 421.122C223.375 421.538 223.574 422.006 223.696 422.526C223.826 423.046 223.891 423.579 223.891 424.125C223.891 425.13 223.748 426.01 223.462 426.764C223.184 427.518 222.781 428.107 222.253 428.532C221.724 428.948 221.083 429.156 220.329 429.156ZM220.394 424.567C220.758 424.567 221.083 424.485 221.369 424.32C221.655 424.155 221.88 423.939 222.045 423.67C222.218 423.393 222.305 423.089 222.305 422.76C222.305 422.405 222.218 422.093 222.045 421.824C221.88 421.547 221.65 421.33 221.356 421.174C221.07 421.018 220.745 420.94 220.381 420.94C220.017 420.94 219.692 421.018 219.406 421.174C219.12 421.33 218.89 421.547 218.717 421.824C218.552 422.093 218.47 422.4 218.47 422.747C218.47 423.302 218.652 423.744 219.016 424.073C219.38 424.402 219.839 424.567 220.394 424.567ZM226.258 429V421.46L224.789 421.798V420.784L226.804 419.9H227.688V429H226.258Z" fill="black"/>
</g>
<g id="id390" clip-path="url(#clip11_508_2186)">
<g id="Group 450_15">
<path id="Vector 100_15" d="M247.815 476.873L246.218 458.413L257.398 457.74L257.239 455.109L272.341 454.136L272.53 457.274L279.007 456.885L280.175 475.516L247.815 476.873Z" stroke="black"/>
<path id="Vector 101_15" d="M247.133 468.342L279.395 466.494" stroke="black"/>
<path id="Vector 102_15" d="M274.883 466.884L275.565 475.416" stroke="black"/>
</g>
<path id="390" d="M219.835 469.156C219.246 469.156 218.708 469.052 218.223 468.844C217.746 468.627 217.365 468.302 217.079 467.869C216.793 467.436 216.641 466.894 216.624 466.244H217.989C218.006 466.729 218.171 467.141 218.483 467.479C218.804 467.808 219.254 467.973 219.835 467.973C220.39 467.973 220.814 467.821 221.109 467.518C221.404 467.206 221.551 466.82 221.551 466.361C221.551 465.806 221.352 465.395 220.953 465.126C220.563 464.857 220.082 464.723 219.51 464.723H218.834V463.579H219.523C220.034 463.579 220.446 463.458 220.758 463.215C221.079 462.972 221.239 462.63 221.239 462.188C221.239 461.815 221.113 461.512 220.862 461.278C220.619 461.044 220.273 460.927 219.822 460.927C219.354 460.927 218.986 461.066 218.717 461.343C218.448 461.612 218.301 461.95 218.275 462.357H216.91C216.927 461.828 217.057 461.369 217.3 460.979C217.551 460.589 217.894 460.286 218.327 460.069C218.76 459.852 219.259 459.744 219.822 459.744C220.429 459.744 220.936 459.852 221.343 460.069C221.759 460.277 222.071 460.563 222.279 460.927C222.496 461.282 222.604 461.672 222.604 462.097C222.604 462.582 222.47 463.007 222.201 463.371C221.932 463.735 221.573 463.978 221.122 464.099C221.642 464.212 222.071 464.467 222.409 464.866C222.747 465.256 222.916 465.763 222.916 466.387C222.916 466.89 222.799 467.353 222.565 467.778C222.331 468.194 221.984 468.528 221.525 468.779C221.066 469.03 220.502 469.156 219.835 469.156ZM227.329 469.156C226.731 469.156 226.219 469.039 225.795 468.805C225.37 468.571 225.036 468.259 224.794 467.869C224.56 467.479 224.417 467.054 224.365 466.595H225.652C225.73 467.046 225.916 467.392 226.211 467.635C226.505 467.878 226.882 467.999 227.342 467.999C227.974 467.999 228.494 467.704 228.902 467.115C229.318 466.517 229.539 465.603 229.565 464.372C229.357 464.753 229.032 465.078 228.59 465.347C228.156 465.616 227.654 465.75 227.082 465.75C226.57 465.75 226.089 465.629 225.639 465.386C225.188 465.143 224.824 464.805 224.547 464.372C224.269 463.93 224.131 463.41 224.131 462.812C224.131 462.283 224.261 461.785 224.521 461.317C224.781 460.849 225.145 460.472 225.613 460.186C226.089 459.891 226.653 459.744 227.303 459.744C227.97 459.744 228.533 459.87 228.993 460.121C229.452 460.372 229.82 460.706 230.098 461.122C230.375 461.538 230.574 462.006 230.696 462.526C230.826 463.046 230.891 463.579 230.891 464.125C230.891 465.13 230.748 466.01 230.462 466.764C230.184 467.518 229.781 468.107 229.253 468.532C228.724 468.948 228.083 469.156 227.329 469.156ZM227.394 464.567C227.758 464.567 228.083 464.485 228.369 464.32C228.655 464.155 228.88 463.939 229.045 463.67C229.218 463.393 229.305 463.089 229.305 462.76C229.305 462.405 229.218 462.093 229.045 461.824C228.88 461.547 228.65 461.33 228.356 461.174C228.07 461.018 227.745 460.94 227.381 460.94C227.017 460.94 226.692 461.018 226.406 461.174C226.12 461.33 225.89 461.547 225.717 461.824C225.552 462.093 225.47 462.4 225.47 462.747C225.47 463.302 225.652 463.744 226.016 464.073C226.38 464.402 226.839 464.567 227.394 464.567ZM236.127 469.156C235.304 469.156 234.593 468.961 233.995 468.571C233.406 468.172 232.951 467.622 232.63 466.92C232.318 466.209 232.162 465.386 232.162 464.45C232.162 463.514 232.318 462.695 232.63 461.993C232.951 461.282 233.406 460.732 233.995 460.342C234.593 459.943 235.304 459.744 236.127 459.744C236.951 459.744 237.657 459.943 238.246 460.342C238.836 460.732 239.286 461.282 239.598 461.993C239.919 462.695 240.079 463.514 240.079 464.45C240.079 465.386 239.919 466.209 239.598 466.92C239.286 467.622 238.836 468.172 238.246 468.571C237.657 468.961 236.951 469.156 236.127 469.156ZM236.127 467.921C236.621 467.921 237.059 467.782 237.44 467.505C237.83 467.228 238.134 466.829 238.35 466.309C238.567 465.789 238.675 465.169 238.675 464.45C238.675 463.731 238.567 463.111 238.35 462.591C238.134 462.071 237.83 461.672 237.44 461.395C237.059 461.118 236.621 460.979 236.127 460.979C235.625 460.979 235.183 461.118 234.801 461.395C234.42 461.672 234.121 462.071 233.904 462.591C233.688 463.111 233.579 463.731 233.579 464.45C233.579 465.169 233.688 465.789 233.904 466.309C234.121 466.829 234.42 467.228 234.801 467.505C235.183 467.782 235.625 467.921 236.127 467.921Z" fill="black"/>
</g>
</g>
</g>
<defs>
<clipPath id="clip0_508_2186">
<rect width="596" height="731" fill="white" transform="translate(56 42)"/>
</clipPath>
<clipPath id="clip1_508_2186">
<rect width="79" height="30" fill="white" transform="translate(111 219)"/>
</clipPath>
<clipPath id="clip2_508_2186">
<rect width="79" height="31" fill="white" transform="translate(109 260)"/>
</clipPath>
<clipPath id="clip3_508_2186">
<rect width="79" height="31" fill="white" transform="translate(108 306)"/>
</clipPath>
<clipPath id="clip4_508_2186">
<rect width="79" height="27" fill="white" transform="translate(108 351)"/>
</clipPath>
<clipPath id="clip5_508_2186">
<rect width="79" height="28" fill="white" transform="translate(111 393)"/>
</clipPath>
<clipPath id="clip6_508_2186">
<rect width="69" height="31" fill="white" transform="translate(127 434)"/>
</clipPath>
<clipPath id="clip7_508_2186">
<rect width="58" height="46" fill="white" transform="translate(141 161)"/>
</clipPath>
<clipPath id="clip8_508_2186">
<rect width="72" height="31" fill="white" transform="translate(203 280)"/>
</clipPath>
<clipPath id="clip9_508_2186">
<rect width="72" height="26" fill="white" transform="translate(202 370)"/>
</clipPath>
<clipPath id="clip10_508_2186">
<rect width="72" height="29" fill="white" transform="translate(208 409)"/>
</clipPath>
<clipPath id="clip11_508_2186">
<rect width="72" height="29" fill="white" transform="translate(215 451)"/>
</clipPath>
</defs>
</svg>
