<svg width="674" height="773" viewBox="0 0 674 773" fill="none" xmlns="http://www.w3.org/2000/svg">
<g id="map">
    <g id="lines">
        <path id="Vector 86" d="M213 137C213 137 168.5 306.5 208.5 494" stroke="black"/>
        <path id="Vector 87" d="M203.5 182.5L297.5 193" stroke="black"/>
    </g>
    <g id="BLOCK_A">
        <g id="id397">
            <g id="Group 450">
                <path id="Vector 100" d="M248.5 172.5L250.5 155L261.5 156L262 153L277 155L276.5 158.5L283 159L280.5 177.5L248.5 172.5Z" stroke="black"/>
                <path id="Vector 101" d="M249.5 164L281.5 168.5" stroke="black"/>
                <path id="Vector 102" d="M277 168L276 176.5" stroke="black"/>
            </g>
            <path id="397" d="M223.835 166.156C223.246 166.156 222.708 166.052 222.223 165.844C221.746 165.627 221.365 165.302 221.079 164.869C220.793 164.436 220.641 163.894 220.624 163.244H221.989C222.006 163.729 222.171 164.141 222.483 164.479C222.804 164.808 223.254 164.973 223.835 164.973C224.39 164.973 224.814 164.821 225.109 164.518C225.404 164.206 225.551 163.82 225.551 163.361C225.551 162.806 225.352 162.395 224.953 162.126C224.563 161.857 224.082 161.723 223.51 161.723H222.834V160.579H223.523C224.034 160.579 224.446 160.458 224.758 160.215C225.079 159.972 225.239 159.63 225.239 159.188C225.239 158.815 225.113 158.512 224.862 158.278C224.619 158.044 224.273 157.927 223.822 157.927C223.354 157.927 222.986 158.066 222.717 158.343C222.448 158.612 222.301 158.95 222.275 159.357H220.91C220.927 158.828 221.057 158.369 221.3 157.979C221.551 157.589 221.894 157.286 222.327 157.069C222.76 156.852 223.259 156.744 223.822 156.744C224.429 156.744 224.936 156.852 225.343 157.069C225.759 157.277 226.071 157.563 226.279 157.927C226.496 158.282 226.604 158.672 226.604 159.097C226.604 159.582 226.47 160.007 226.201 160.371C225.932 160.735 225.573 160.978 225.122 161.099C225.642 161.212 226.071 161.467 226.409 161.866C226.747 162.256 226.916 162.763 226.916 163.387C226.916 163.89 226.799 164.353 226.565 164.778C226.331 165.194 225.984 165.528 225.525 165.779C225.066 166.03 224.502 166.156 223.835 166.156ZM231.329 166.156C230.731 166.156 230.219 166.039 229.795 165.805C229.37 165.571 229.036 165.259 228.794 164.869C228.56 164.479 228.417 164.054 228.365 163.595H229.652C229.73 164.046 229.916 164.392 230.211 164.635C230.505 164.878 230.882 164.999 231.342 164.999C231.974 164.999 232.494 164.704 232.902 164.115C233.318 163.517 233.539 162.603 233.565 161.372C233.357 161.753 233.032 162.078 232.59 162.347C232.156 162.616 231.654 162.75 231.082 162.75C230.57 162.75 230.089 162.629 229.639 162.386C229.188 162.143 228.824 161.805 228.547 161.372C228.269 160.93 228.131 160.41 228.131 159.812C228.131 159.283 228.261 158.785 228.521 158.317C228.781 157.849 229.145 157.472 229.613 157.186C230.089 156.891 230.653 156.744 231.303 156.744C231.97 156.744 232.533 156.87 232.993 157.121C233.452 157.372 233.82 157.706 234.098 158.122C234.375 158.538 234.574 159.006 234.696 159.526C234.826 160.046 234.891 160.579 234.891 161.125C234.891 162.13 234.748 163.01 234.462 163.764C234.184 164.518 233.781 165.107 233.253 165.532C232.724 165.948 232.083 166.156 231.329 166.156ZM231.394 161.567C231.758 161.567 232.083 161.485 232.369 161.32C232.655 161.155 232.88 160.939 233.045 160.67C233.218 160.393 233.305 160.089 233.305 159.76C233.305 159.405 233.218 159.093 233.045 158.824C232.88 158.547 232.65 158.33 232.356 158.174C232.07 158.018 231.745 157.94 231.381 157.94C231.017 157.94 230.692 158.018 230.406 158.174C230.12 158.33 229.89 158.547 229.717 158.824C229.552 159.093 229.47 159.4 229.47 159.747C229.47 160.302 229.652 160.744 230.016 161.073C230.38 161.402 230.839 161.567 231.394 161.567ZM236.883 166L240.406 158.083H235.674V156.9H241.823V157.901L238.326 166H236.883Z" fill="black"/>
        </g>

    </g>
</g>




<defs>
<clipPath id="clip0_508_2186">
<rect width="596" height="731" fill="white" transform="translate(56 42)"/>
</clipPath>
<clipPath id="clip1_508_2186">
<rect width="79" height="30" fill="white" transform="translate(111 219)"/>
</clipPath>
<clipPath id="clip2_508_2186">
<rect width="79" height="31" fill="white" transform="translate(109 260)"/>
</clipPath>
<clipPath id="clip3_508_2186">
<rect width="79" height="31" fill="white" transform="translate(108 306)"/>
</clipPath>
<clipPath id="clip4_508_2186">
<rect width="79" height="27" fill="white" transform="translate(108 351)"/>
</clipPath>
<clipPath id="clip5_508_2186">
<rect width="79" height="28" fill="white" transform="translate(111 393)"/>
</clipPath>
<clipPath id="clip6_508_2186">
<rect width="69" height="31" fill="white" transform="translate(127 434)"/>
</clipPath>
<clipPath id="clip7_508_2186">
<rect width="58" height="46" fill="white" transform="translate(141 161)"/>
</clipPath>
<clipPath id="clip8_508_2186">
<rect width="72" height="31" fill="white" transform="translate(203 280)"/>
</clipPath>
<clipPath id="clip9_508_2186">
<rect width="72" height="26" fill="white" transform="translate(202 370)"/>
</clipPath>
<clipPath id="clip10_508_2186">
<rect width="72" height="29" fill="white" transform="translate(208 409)"/>
</clipPath>
<clipPath id="clip11_508_2186">
<rect width="72" height="29" fill="white" transform="translate(215 451)"/>
</clipPath>
</defs>
</svg>
